<svg width="101" height="24" viewBox="0 0 101 24" fill="none" xmlns="http://www.w3.org/2000/svg">
<path d="M-7.19379 6.70035C-12.0745 6.70035 -15.8881 10.4054 -15.8881 15.3654C-15.8881 20.3254 -12.1709 23.9988 -7.19379 23.9988C-2.21672 23.9988 1.56516 20.262 1.56516 15.3337C1.56516 10.4371 -2.15207 6.70035 -7.19379 6.70035ZM-7.16087 20.4242C-9.94029 20.4242 -11.977 18.2656 -11.977 15.3666C-11.977 12.4348 -9.97322 10.2774 -7.19379 10.2774C-4.38148 10.2774 -2.34598 12.4677 -2.34598 15.3666C-2.34598 18.2656 -4.38148 20.4242 -7.16087 20.4242ZM2.63109 10.47H5.05543V23.678H8.93368V7.02233H2.63109V10.47ZM-25.6484 10.2761C-23.6117 10.2761 -21.9958 11.5323 -21.3823 13.4007H-17.2772C-18.0212 9.40658 -21.3177 6.70035 -25.6155 6.70035C-30.4962 6.70035 -34.3098 10.4054 -34.3098 15.3666C-34.3098 20.3279 -30.5926 24 -25.6155 24C-21.4141 24 -18.0529 21.2938 -17.309 17.2667H-21.3823C-21.9641 19.1351 -23.58 20.4242 -25.6167 20.4242C-28.429 20.4242 -30.3999 18.2656 -30.3999 15.3666C-30.3986 12.4348 -28.4595 10.2761 -25.6484 10.2761ZM76.32 13.7556L73.476 13.3373C72.1189 13.1446 71.1492 12.6933 71.1492 11.6299C71.1492 10.47 72.4103 9.89074 74.1225 9.89074C75.9972 9.89074 77.1934 10.6957 77.4518 12.0165H81.201C80.7803 8.66629 78.1947 6.70155 74.22 6.70155C70.1149 6.70155 67.4003 8.79559 67.4003 11.7591C67.4003 14.5934 69.1782 16.2374 72.765 16.7521L75.609 17.1704C76.9995 17.3631 77.775 17.9119 77.775 18.9424C77.775 20.2632 76.4179 20.8108 74.5433 20.8108C72.2479 20.8108 70.9553 19.8766 70.7614 18.4595H66.9477C67.3039 21.7133 69.8565 24 74.5103 24C78.7448 24 81.5558 22.067 81.5558 18.7485C81.5558 15.7849 79.5203 14.2385 76.32 13.7556ZM6.99455 0.160984C5.57255 0.160984 4.50568 1.19152 4.50568 2.60867C4.50568 4.02581 5.57143 5.05635 6.99455 5.05635C8.41655 5.05635 9.4838 4.02581 9.4838 2.60867C9.4838 1.19152 8.41655 0.160984 6.99455 0.160984ZM63.9098 12.725C63.9098 9.11753 61.7123 6.70155 57.0582 6.70155C52.6628 6.70155 50.2065 8.92485 49.7213 12.3396H53.5677C53.7615 11.0189 54.7958 9.92366 56.9937 9.92366C58.9658 9.92366 59.9352 10.7932 59.9352 11.8567C59.9352 13.2422 58.1569 13.5958 55.9594 13.8215C52.986 14.1434 49.3017 15.1739 49.3017 19.04C49.3017 22.0365 51.5322 23.9683 55.0875 23.9683C57.8667 23.9683 59.6119 22.8085 60.4853 20.9718C60.6147 22.6146 61.8428 23.678 63.5562 23.678H65.8185V20.2315H63.9109V12.725H63.9098ZM60.096 16.9131C60.096 19.1363 58.1569 20.7791 55.797 20.7791C54.3424 20.7791 53.1143 20.1669 53.1143 18.879C53.1143 17.2362 55.086 16.785 56.8962 16.5923C58.6414 16.4313 59.6108 16.0447 60.096 15.3032V16.9131ZM39.5085 6.70035C37.3425 6.70035 35.5328 7.60283 34.2402 9.11633V0H30.3619V23.678H34.1753V21.4877C35.4679 23.0658 37.311 24 39.5085 24C44.1623 24 47.6858 20.3279 47.6858 15.3666C47.6858 10.4054 44.0978 6.70035 39.5085 6.70035ZM38.9269 20.4242C36.1474 20.4242 34.1108 18.2656 34.1108 15.3666C34.1108 12.4677 36.1793 10.2774 38.9584 10.2774C41.7709 10.2774 43.7415 12.436 43.7415 15.3666C43.7415 18.2656 41.706 20.4242 38.9269 20.4242ZM21.0855 6.70035C18.5648 6.70035 16.9159 7.73089 15.9465 9.18094V7.02233H12.0998V23.6768H15.978V14.6252C15.978 12.0799 17.5939 10.2761 19.9857 10.2761C22.2162 10.2761 23.6052 11.8543 23.6052 14.1422V23.678H27.4834V13.8531C27.4849 9.6639 25.32 6.70035 21.0855 6.70035ZM100.043 14.8191C100.043 10.0517 96.5528 6.70155 91.866 6.70155C86.889 6.70155 83.2365 10.4383 83.2365 15.3666C83.2365 20.5535 87.1474 24 91.9309 24C95.9712 24 99.1384 21.6157 99.9458 18.2339H95.9052C95.3235 19.7156 93.9015 20.5535 91.9943 20.5535C89.505 20.5535 87.6304 19.0071 87.2108 16.3008H100.042V14.8191H100.043ZM87.4377 13.53C88.0527 11.2103 89.7975 10.0835 91.8015 10.0835C93.999 10.0835 95.6798 11.3396 96.0675 13.53H87.4377Z" fill="url(#paint0_linear_168_1412)"/>
<defs>
<linearGradient id="paint0_linear_168_1412" x1="-34.3098" y1="12" x2="100.043" y2="12" gradientUnits="userSpaceOnUse">
<stop stop-color="white" stop-opacity="0.96"/>
<stop offset="1" stop-color="white" stop-opacity="0.84"/>
</linearGradient>
</defs>
</svg>
