<svg width="164" height="48" viewBox="0 0 164 48" fill="none" xmlns="http://www.w3.org/2000/svg">
<g clip-path="url(#clip0_168_1415)">
<path d="M19.29 14.0132L9.86385 20.0264L19.29 26.0396L9.86385 32.0528L0.437744 26.0071L9.86385 19.9939L0.437744 14.0132L9.86385 8L19.29 14.0132ZM9.81509 33.9868L19.2412 27.9736L28.6673 33.9868L19.2412 40L9.81509 33.9868ZM19.29 26.0071L28.7161 19.9939L19.29 14.0132L28.6673 8L38.0934 14.0132L28.6673 20.0264L38.0934 26.0396L28.6673 32.0528L19.29 26.0071Z" fill="url(#paint0_linear_168_1415)"/>
<path d="M46.0934 14.4032H53.7155C58.5748 14.4032 62.5891 17.2148 62.5891 23.6343V24.9832C62.5891 31.4515 58.8349 34.3606 53.8618 34.3606H46.0934V14.4032ZM50.3514 18.0274V30.7201H53.618C56.3808 30.7201 58.2336 28.9162 58.2336 24.902V23.8456C58.2336 19.8314 56.2833 18.0274 53.4717 18.0274H50.3514ZM64.8481 18.2224H68.261L68.8135 21.9766C69.4636 19.4251 71.1213 18.0599 74.1279 18.0599H75.1843V22.3667H73.4291C69.9674 22.3667 69.1223 23.5693 69.1223 26.9822V34.4093H64.9131V18.2224H64.8481ZM76.0294 26.6409V26.1859C76.0294 20.774 79.4911 17.8161 84.2041 17.8161C89.0147 17.8161 92.3788 20.774 92.3788 26.1859V26.6409C92.3788 31.9553 89.1122 34.8156 84.2041 34.8156C78.9872 34.7669 76.0294 31.9715 76.0294 26.6409ZM88.0721 26.5922V26.1859C88.0721 23.1793 86.5606 21.3753 84.1553 21.3753C81.7988 21.3753 80.2386 23.033 80.2386 26.1859V26.5922C80.2386 29.5013 81.7501 31.1589 84.1553 31.1589C86.5606 31.1102 88.0721 29.5013 88.0721 26.5922ZM94.5891 18.2224H98.0995L98.5058 21.2778C99.3509 19.23 101.155 17.8161 103.82 17.8161C107.932 17.8161 110.646 20.774 110.646 26.2509V26.7059C110.646 32.0203 107.639 34.8319 103.82 34.8319C101.269 34.8319 99.5134 33.678 98.652 31.8253V40H94.5403L94.5891 18.2224ZM106.372 26.5922V26.2346C106.372 23.0167 104.714 21.4241 102.504 21.4241C100.147 21.4241 98.587 23.228 98.587 26.2346V26.5434C98.587 29.4037 100.098 31.2077 102.455 31.2077C104.877 31.1589 106.372 29.615 106.372 26.5922ZM116.87 31.419L116.513 34.3768H112.905V12.8105H117.017V21.0828C117.927 18.97 119.731 17.8161 122.282 17.8161C126.15 17.8649 129.011 20.5302 129.011 25.8933V26.3971C129.011 31.7603 126.297 34.8319 122.185 34.8319C119.471 34.7669 117.716 33.5155 116.87 31.419ZM124.688 26.3971V25.9908C124.688 23.033 123.079 21.3753 120.82 21.3753C118.512 21.3753 116.903 23.228 116.903 26.0396V26.3971C116.903 29.4037 118.463 31.1589 120.771 31.1589C123.241 31.1589 124.688 29.615 124.688 26.3971ZM130.815 26.6409V26.1859C130.815 20.774 134.276 17.8161 138.989 17.8161C143.8 17.8161 147.164 20.774 147.164 26.1859V26.6409C147.164 31.9553 143.849 34.8156 138.989 34.8156C133.772 34.7669 130.815 31.9715 130.815 26.6409ZM142.89 26.5922V26.1859C142.89 23.1793 141.378 21.3753 138.973 21.3753C136.617 21.3753 135.056 23.033 135.056 26.1859V26.5922C135.056 29.5013 136.568 31.1589 138.973 31.1589C141.395 31.1102 142.89 29.5013 142.89 26.5922ZM152.673 25.9908L147.001 18.2224H151.861L155.127 23.0817L158.443 18.2224H163.253L157.5 25.9421L163.562 34.3768H158.8L155.095 29.0137L151.487 34.3768H146.514L152.673 25.9908Z" fill="url(#paint1_linear_168_1415)"/>
</g>
<defs>
<linearGradient id="paint0_linear_168_1415" x1="0.437744" y1="24" x2="38.0934" y2="24" gradientUnits="userSpaceOnUse">
<stop stop-color="white" stop-opacity="0.96"/>
<stop offset="1" stop-color="white" stop-opacity="0.84"/>
</linearGradient>
<linearGradient id="paint1_linear_168_1415" x1="46.0934" y1="26.4053" x2="163.562" y2="26.4053" gradientUnits="userSpaceOnUse">
<stop stop-color="white" stop-opacity="0.96"/>
<stop offset="1" stop-color="white" stop-opacity="0.84"/>
</linearGradient>
<clipPath id="clip0_168_1415">
<rect width="163.124" height="48" fill="white" transform="translate(0.437744)"/>
</clipPath>
</defs>
</svg>
