<svg width="114" height="48" viewBox="0 0 114 48" fill="none" xmlns="http://www.w3.org/2000/svg">
<g clip-path="url(#clip0_168_1418)">
<path d="M48.7999 25.6501C48.7999 30.9734 44.6355 34.896 39.5249 34.896C34.4143 34.896 30.2499 30.9734 30.2499 25.6501C30.2499 20.2894 34.4143 16.4043 39.5249 16.4043C44.6355 16.4043 48.7999 20.2894 48.7999 25.6501ZM44.7398 25.6501C44.7398 22.3236 42.3262 20.0476 39.5249 20.0476C36.7236 20.0476 34.31 22.3236 34.31 25.6501C34.31 28.9433 36.7236 31.2527 39.5249 31.2527C42.3262 31.2527 44.7398 28.9391 44.7398 25.6501Z" fill="url(#paint0_linear_168_1418)"/>
<path d="M68.8091 25.6501C68.8091 30.9734 64.6447 34.896 59.5341 34.896C54.4234 34.896 50.259 30.9734 50.259 25.6501C50.259 20.2936 54.4234 16.4043 59.5341 16.4043C64.6447 16.4043 68.8091 20.2894 68.8091 25.6501ZM64.7489 25.6501C64.7489 22.3236 62.3353 20.0476 59.5341 20.0476C56.7328 20.0476 54.3192 22.3236 54.3192 25.6501C54.3192 28.9433 56.7328 31.2527 59.5341 31.2527C62.3353 31.2527 64.7489 28.9391 64.7489 25.6501Z" fill="url(#paint1_linear_168_1418)"/>
<path d="M87.9847 16.9629V33.562C87.9847 40.3901 83.9579 43.1789 79.1974 43.1789C74.7162 43.1789 72.0191 40.1817 71.002 37.7306L74.5369 36.2591C75.1664 37.7639 76.7088 39.5397 79.1932 39.5397C82.2404 39.5397 84.1288 37.6597 84.1288 34.1206V32.7909H83.987C83.0783 33.9122 81.3275 34.8918 79.1182 34.8918C74.4953 34.8918 70.26 30.865 70.26 25.6835C70.26 20.4645 74.4953 16.4043 79.1182 16.4043C81.3233 16.4043 83.0741 17.3839 83.987 18.4719H84.1288V16.9671H87.9847V16.9629ZM84.4164 25.6835C84.4164 22.4278 82.2446 20.0476 79.4808 20.0476C76.6796 20.0476 74.3327 22.4278 74.3327 25.6835C74.3327 28.9058 76.6796 31.2527 79.4808 31.2527C82.2446 31.2527 84.4164 28.9058 84.4164 25.6835Z" fill="url(#paint2_linear_168_1418)"/>
<path d="M94.3412 7.23364V34.3292H90.3811V7.23364H94.3412Z" fill="url(#paint3_linear_168_1418)"/>
<path d="M109.774 28.6932L112.925 30.7941C111.908 32.299 109.457 34.8918 105.222 34.8918C99.9692 34.8918 96.0466 30.8317 96.0466 25.646C96.0466 20.1477 100.003 16.4001 104.767 16.4001C109.565 16.4001 111.912 20.2185 112.679 22.282L113.1 23.3324L100.74 28.4514C101.687 30.3064 103.158 31.2527 105.222 31.2527C107.289 31.2527 108.723 30.2356 109.774 28.6932ZM100.073 25.3667L108.336 21.936C107.881 20.7813 106.514 19.9768 104.905 19.9768C102.841 19.9768 99.9692 21.7984 100.073 25.3667Z" fill="url(#paint4_linear_168_1418)"/>
<path d="M15.2597 23.2447V19.3221H28.4782C28.6074 20.0058 28.6741 20.8145 28.6741 21.6899C28.6741 24.6329 27.8696 28.272 25.2767 30.8648C22.7548 33.491 19.5325 34.8917 15.2639 34.8917C7.35198 34.8917 0.698975 28.4471 0.698975 20.5352C0.698975 12.6233 7.35198 6.17871 15.2639 6.17871C19.6409 6.17871 22.7589 7.89615 25.1017 10.1347L22.3337 12.9026C20.6538 11.3269 18.3778 10.1013 15.2597 10.1013C9.4821 10.1013 4.9634 14.7576 4.9634 20.5352C4.9634 26.3128 9.4821 30.9691 15.2597 30.9691C19.0072 30.9691 21.1415 29.4642 22.5088 28.0969C23.6176 26.9881 24.3471 25.4041 24.6348 23.2406L15.2597 23.2447Z" fill="url(#paint5_linear_168_1418)"/>
</g>
<defs>
<linearGradient id="paint0_linear_168_1418" x1="30.2499" y1="25.6501" x2="48.7999" y2="25.6501" gradientUnits="userSpaceOnUse">
<stop stop-color="white" stop-opacity="0.96"/>
<stop offset="1" stop-color="white" stop-opacity="0.84"/>
</linearGradient>
<linearGradient id="paint1_linear_168_1418" x1="50.259" y1="25.6501" x2="68.8091" y2="25.6501" gradientUnits="userSpaceOnUse">
<stop stop-color="white" stop-opacity="0.96"/>
<stop offset="1" stop-color="white" stop-opacity="0.84"/>
</linearGradient>
<linearGradient id="paint2_linear_168_1418" x1="70.26" y1="29.7916" x2="87.9847" y2="29.7916" gradientUnits="userSpaceOnUse">
<stop stop-color="white" stop-opacity="0.96"/>
<stop offset="1" stop-color="white" stop-opacity="0.84"/>
</linearGradient>
<linearGradient id="paint3_linear_168_1418" x1="90.3811" y1="20.7814" x2="94.3412" y2="20.7814" gradientUnits="userSpaceOnUse">
<stop stop-color="white" stop-opacity="0.96"/>
<stop offset="1" stop-color="white" stop-opacity="0.84"/>
</linearGradient>
<linearGradient id="paint4_linear_168_1418" x1="96.0466" y1="25.646" x2="113.1" y2="25.646" gradientUnits="userSpaceOnUse">
<stop stop-color="white" stop-opacity="0.96"/>
<stop offset="1" stop-color="white" stop-opacity="0.84"/>
</linearGradient>
<linearGradient id="paint5_linear_168_1418" x1="0.698975" y1="20.5352" x2="28.6741" y2="20.5352" gradientUnits="userSpaceOnUse">
<stop stop-color="white" stop-opacity="0.96"/>
<stop offset="1" stop-color="white" stop-opacity="0.84"/>
</linearGradient>
<clipPath id="clip0_168_1418">
<rect width="113" height="48" fill="white" transform="translate(0.562256)"/>
</clipPath>
</defs>
</svg>
