<svg width="40" height="40" viewBox="0 0 40 40" fill="none" xmlns="http://www.w3.org/2000/svg">
<rect width="40" height="40" rx="20" fill="white"/>
<path d="M24.45 14.5498C24.2522 14.5498 24.0589 14.6085 23.8945 14.7184C23.73 14.8282 23.6018 14.9844 23.5261 15.1672C23.4505 15.3499 23.4306 15.5509 23.4692 15.7449C23.5078 15.9389 23.6031 16.1171 23.7429 16.2569C23.8828 16.3968 24.061 16.492 24.2549 16.5306C24.4489 16.5692 24.65 16.5494 24.8327 16.4737C25.0154 16.398 25.1716 16.2699 25.2815 16.1054C25.3914 15.941 25.45 15.7476 25.45 15.5498C25.45 15.2846 25.3447 15.0303 25.1571 14.8427C24.9696 14.6552 24.7152 14.5498 24.45 14.5498ZM28.2834 16.5665C28.2671 15.8751 28.1377 15.191 27.9 14.5415C27.6881 13.9858 27.3583 13.4826 26.9334 13.0665C26.5207 12.6394 26.0163 12.3117 25.4584 12.1082C24.8106 11.8633 24.1257 11.7308 23.4334 11.7165C22.55 11.6665 22.2667 11.6665 20 11.6665C17.7334 11.6665 17.45 11.6665 16.5667 11.7165C15.8743 11.7308 15.1895 11.8633 14.5417 12.1082C13.9848 12.3137 13.4808 12.6411 13.0667 13.0665C12.6395 13.4792 12.3118 13.9835 12.1084 14.5415C11.8635 15.1893 11.731 15.8741 11.7167 16.5665C11.6667 17.4498 11.6667 17.7332 11.6667 19.9998C11.6667 22.2665 11.6667 22.5498 11.7167 23.4332C11.731 24.1255 11.8635 24.8104 12.1084 25.4582C12.3118 26.0161 12.6395 26.5205 13.0667 26.9332C13.4808 27.3585 13.9848 27.686 14.5417 27.8915C15.1895 28.1364 15.8743 28.2688 16.5667 28.2832C17.45 28.3332 17.7334 28.3332 20 28.3332C22.2667 28.3332 22.55 28.3332 23.4334 28.2832C24.1257 28.2688 24.8106 28.1364 25.4584 27.8915C26.0163 27.688 26.5207 27.3603 26.9334 26.9332C27.3602 26.5187 27.6903 26.015 27.9 25.4582C28.1377 24.8087 28.2671 24.1246 28.2834 23.4332C28.2834 22.5498 28.3334 22.2665 28.3334 19.9998C28.3334 17.7332 28.3334 17.4498 28.2834 16.5665ZM26.7834 23.3332C26.7773 23.8621 26.6815 24.3863 26.5 24.8832C26.367 25.2458 26.1533 25.5735 25.875 25.8415C25.6047 26.1169 25.2777 26.3302 24.9167 26.4665C24.4198 26.648 23.8957 26.7438 23.3667 26.7498C22.5334 26.7915 22.225 26.7998 20.0334 26.7998C17.8417 26.7998 17.5334 26.7998 16.7 26.7498C16.1508 26.7601 15.6038 26.6755 15.0834 26.4998C14.7382 26.3566 14.4262 26.1438 14.1667 25.8748C13.8901 25.6071 13.6791 25.2792 13.55 24.9165C13.3466 24.4125 13.2337 23.8765 13.2167 23.3332C13.2167 22.4998 13.1667 22.1915 13.1667 19.9998C13.1667 17.8082 13.1667 17.4998 13.2167 16.6665C13.2204 16.1257 13.3191 15.5898 13.5084 15.0832C13.6551 14.7314 13.8802 14.4179 14.1667 14.1665C14.4199 13.88 14.7328 13.6524 15.0834 13.4998C15.5913 13.3165 16.1267 13.2207 16.6667 13.2165C17.5 13.2165 17.8084 13.1665 20 13.1665C22.1917 13.1665 22.5 13.1665 23.3334 13.2165C23.8623 13.2226 24.3864 13.3184 24.8834 13.4998C25.262 13.6404 25.6019 13.8689 25.875 14.1665C26.1481 14.4225 26.3615 14.7354 26.5 15.0832C26.6852 15.5906 26.7811 16.1263 26.7834 16.6665C26.825 17.4998 26.8334 17.8082 26.8334 19.9998C26.8334 22.1915 26.825 22.4998 26.7834 23.3332ZM20 15.7248C19.1549 15.7265 18.3292 15.9786 17.6272 16.4494C16.9253 16.9201 16.3787 17.5883 16.0564 18.3696C15.7341 19.1509 15.6506 20.0102 15.8165 20.8389C15.9824 21.6677 16.3902 22.4286 16.9884 23.0257C17.5866 23.6227 18.3484 24.029 19.1774 24.1933C20.0064 24.3576 20.8656 24.2724 21.6462 23.9486C22.4269 23.6248 23.0941 23.0769 23.5635 22.374C24.0328 21.6712 24.2834 20.845 24.2834 19.9998C24.2845 19.4374 24.1744 18.8803 23.9594 18.3606C23.7444 17.8409 23.4288 17.3688 23.0307 16.9715C22.6327 16.5742 22.16 16.2596 21.6399 16.0456C21.1197 15.8317 20.5624 15.7226 20 15.7248ZM20 22.7748C19.4512 22.7748 18.9147 22.6121 18.4583 22.3072C18.002 22.0022 17.6463 21.5688 17.4363 21.0618C17.2262 20.5547 17.1713 19.9968 17.2783 19.4585C17.3854 18.9202 17.6497 18.4257 18.0378 18.0376C18.4259 17.6495 18.9203 17.3852 19.4586 17.2782C19.9969 17.1711 20.5549 17.226 21.062 17.4361C21.569 17.6461 22.0024 18.0018 22.3073 18.4581C22.6123 18.9145 22.775 19.451 22.775 19.9998C22.775 20.3643 22.7032 20.7251 22.5638 21.0618C22.4243 21.3985 22.2199 21.7044 21.9622 21.9621C21.7046 22.2197 21.3986 22.4241 21.062 22.5636C20.7253 22.7031 20.3644 22.7748 20 22.7748Z" fill="black"/>
</svg>
