<svg width="40" height="40" viewBox="0 0 40 40" fill="none" xmlns="http://www.w3.org/2000/svg">
<rect width="40" height="40" rx="20" fill="white"/>
<path d="M27.0584 11.6666H12.9417C12.7831 11.6644 12.6255 11.6935 12.478 11.7522C12.3306 11.8109 12.1962 11.8981 12.0824 12.0087C11.9686 12.1194 11.8778 12.2514 11.8151 12.3971C11.7523 12.5429 11.7189 12.6996 11.7167 12.8583V27.1416C11.7189 27.3003 11.7523 27.457 11.8151 27.6028C11.8778 27.7486 11.9686 27.8805 12.0824 27.9912C12.1962 28.1019 12.3306 28.189 12.478 28.2477C12.6255 28.3064 12.7831 28.3355 12.9417 28.3333H27.0584C27.2171 28.3355 27.3747 28.3064 27.5221 28.2477C27.6695 28.189 27.804 28.1019 27.9177 27.9912C28.0315 27.8805 28.1223 27.7486 28.1851 27.6028C28.2478 27.457 28.2812 27.3003 28.2834 27.1416V12.8583C28.2812 12.6996 28.2478 12.5429 28.1851 12.3971C28.1223 12.2514 28.0315 12.1194 27.9177 12.0087C27.804 11.8981 27.6695 11.8109 27.5221 11.7522C27.3747 11.6935 27.2171 11.6644 27.0584 11.6666ZM16.7417 25.6166H14.2417V18.1166H16.7417V25.6166ZM15.4917 17.0666C15.147 17.0666 14.8163 16.9297 14.5725 16.6859C14.3287 16.4421 14.1917 16.1114 14.1917 15.7666C14.1917 15.4218 14.3287 15.0912 14.5725 14.8474C14.8163 14.6036 15.147 14.4666 15.4917 14.4666C15.6748 14.4459 15.8602 14.464 16.0358 14.5199C16.2114 14.5757 16.3732 14.668 16.5106 14.7908C16.648 14.9135 16.758 15.0639 16.8333 15.232C16.9086 15.4002 16.9475 15.5824 16.9475 15.7666C16.9475 15.9509 16.9086 16.133 16.8333 16.3012C16.758 16.4694 16.648 16.6198 16.5106 16.7425C16.3732 16.8652 16.2114 16.9575 16.0358 17.0134C15.8602 17.0692 15.6748 17.0874 15.4917 17.0666ZM25.7584 25.6166H23.2584V21.5916C23.2584 20.5833 22.9001 19.925 21.9917 19.925C21.7106 19.927 21.4369 20.0152 21.2074 20.1776C20.978 20.34 20.8038 20.5688 20.7084 20.8333C20.6432 21.0292 20.6149 21.2354 20.6251 21.4416V25.6083H18.1251C18.1251 25.6083 18.1251 18.7916 18.1251 18.1083H20.6251V19.1666C20.8522 18.7725 21.1825 18.4479 21.5804 18.2276C21.9784 18.0074 22.4289 17.8998 22.8834 17.9166C24.5501 17.9166 25.7584 18.9916 25.7584 21.3V25.6166Z" fill="black"/>
</svg>
