<svg width="21" height="20" viewBox="0 0 21 20" fill="none" xmlns="http://www.w3.org/2000/svg">
<g clip-path="url(#clip0_1085_1863)">
<path d="M11.3334 9.79164C11.175 9.79164 11.0167 9.7333 10.8917 9.6083C10.65 9.36664 10.65 8.96664 10.8917 8.72497L17.725 1.89164C17.9667 1.64997 18.3667 1.64997 18.6084 1.89164C18.85 2.1333 18.85 2.5333 18.6084 2.77497L11.775 9.6083C11.65 9.7333 11.4917 9.79164 11.3334 9.79164Z" fill="#292D32"/>
<path d="M18.8334 6.29169C18.4917 6.29169 18.2084 6.00835 18.2084 5.66669V2.29169H14.8334C14.4917 2.29169 14.2084 2.00835 14.2084 1.66669C14.2084 1.32502 14.4917 1.04169 14.8334 1.04169H18.8334C19.175 1.04169 19.4584 1.32502 19.4584 1.66669V5.66669C19.4584 6.00835 19.175 6.29169 18.8334 6.29169Z" fill="#292D32"/>
<path d="M13 18.9584H7.99996C3.47496 18.9584 1.54163 17.025 1.54163 12.5V7.50002C1.54163 2.97502 3.47496 1.04169 7.99996 1.04169H9.66663C10.0083 1.04169 10.2916 1.32502 10.2916 1.66669C10.2916 2.00835 10.0083 2.29169 9.66663 2.29169H7.99996C4.15829 2.29169 2.79163 3.65835 2.79163 7.50002V12.5C2.79163 16.3417 4.15829 17.7084 7.99996 17.7084H13C16.8416 17.7084 18.2083 16.3417 18.2083 12.5V10.8334C18.2083 10.4917 18.4916 10.2084 18.8333 10.2084C19.175 10.2084 19.4583 10.4917 19.4583 10.8334V12.5C19.4583 17.025 17.525 18.9584 13 18.9584Z" fill="#292D32"/>
</g>
<defs>
<clipPath id="clip0_1085_1863">
<rect width="20" height="20" fill="white" transform="translate(0.5)"/>
</clipPath>
</defs>
</svg>
