<svg width="122" height="48" viewBox="0 0 122 48" fill="none" xmlns="http://www.w3.org/2000/svg">
<g clip-path="url(#clip0_168_1425)">
<path d="M38.4873 32.4263L39.9554 28.9949C41.5629 30.1853 43.6596 30.8154 45.7567 30.8154C47.2945 30.8154 48.2729 30.2204 48.2729 29.3101C48.2378 26.7889 39.0116 28.7498 38.9414 22.4112C38.9063 19.1897 41.7724 16.7036 45.8269 16.7036C48.2378 16.7036 50.6498 17.2991 52.362 18.6649L50.9901 22.1696C49.4147 21.1566 47.4689 20.4503 45.6169 20.4503C44.3588 20.4503 43.5197 21.0453 43.5197 21.8162C43.5548 24.3023 52.8517 22.9364 52.9565 28.9949C52.9565 32.2865 50.1601 34.5977 46.1758 34.5977C43.2405 34.5977 40.5494 33.8975 38.4868 32.4263H38.4873ZM96.9454 27.7523C96.5748 28.4108 96.0357 28.9588 95.3835 29.3402C94.7312 29.7216 93.9893 29.9226 93.2337 29.9227C90.8789 29.9227 88.9702 28.0099 88.9702 25.6506C88.9702 23.2913 90.8789 21.3786 93.2337 21.3786C93.9893 21.3787 94.7312 21.5797 95.3835 21.9611C96.0357 22.3425 96.5748 22.8905 96.9454 23.549L101.027 21.2834C99.4981 18.5511 96.582 16.7036 93.2337 16.7036C88.3021 16.7036 84.3042 20.709 84.3042 25.6506C84.3042 30.5918 88.3021 34.5977 93.2337 34.5977C96.582 34.5977 99.4981 32.7501 101.027 30.0179L96.9454 27.7523ZM55.605 34.2473H60.7076V9.25574H55.6055L55.605 34.2473ZM103.604 9.25574V34.2473H108.706V26.7599L114.753 34.2473H121.275L113.586 25.3524L120.715 17.0524H114.473L108.706 23.953V9.25574H103.604ZM76.4278 17.0535V19.085C75.5892 17.684 73.5271 16.7036 71.3603 16.7036C66.8868 16.7036 63.3571 20.6608 63.3571 25.6331C63.3571 30.6053 66.8868 34.5977 71.3603 34.5977C73.5271 34.5977 75.5892 33.6173 76.4278 32.2163V34.2473H81.5304V17.0535H76.4278ZM76.4278 27.7869C75.694 29.0124 74.1562 29.9222 72.444 29.9222C70.0887 29.9222 68.18 28.0099 68.18 25.6506C68.18 23.2913 70.0887 21.3786 72.444 21.3786C74.1562 21.3786 75.694 22.3239 76.4278 23.584V27.7869Z" fill="url(#paint0_linear_168_1425)"/>
<path d="M11.5405 8.70361C9.88698 8.70361 8.54667 10.0469 8.54667 11.7035C8.54628 12.0971 8.6234 12.4868 8.77365 12.8506C8.92389 13.2143 9.14431 13.5449 9.42231 13.8235C9.70032 14.1021 10.0305 14.3231 10.3939 14.4741C10.7574 14.6251 11.147 14.703 11.5405 14.7034H14.5349V11.7035C14.5356 10.9086 14.2205 10.1461 13.659 9.58348C13.0974 9.0209 12.3354 8.70441 11.5405 8.70361ZM11.5405 16.7033H3.55638C1.9028 16.7033 0.5625 18.0466 0.5625 19.7037C0.5625 21.3603 1.9028 22.7036 3.55638 22.7036H11.541C13.1941 22.7036 14.5349 21.3603 14.5349 19.7037C14.5349 18.0466 13.1941 16.7033 11.5405 16.7033Z" fill="url(#paint1_linear_168_1425)"/>
<path d="M30.5033 19.7037C30.5033 18.0466 29.1625 16.7033 27.5089 16.7033C25.8554 16.7033 24.5151 18.0466 24.5151 19.7037V22.7036H27.5089C28.3038 22.7028 29.0658 22.3863 29.6273 21.8237C30.1889 21.2612 30.504 20.4986 30.5033 19.7037ZM22.5191 19.7037V11.7035C22.5198 10.9086 22.2047 10.1461 21.6432 9.58348C21.0816 9.0209 20.3196 8.70441 19.5248 8.70361C17.8712 8.70361 16.5309 10.0469 16.5309 11.7035V19.7032C16.5309 21.3608 17.8712 22.7041 19.5248 22.7041C20.3196 22.7033 21.0816 22.3868 21.6432 21.8242C22.2047 21.2617 22.5198 20.4991 22.5191 19.7042" fill="url(#paint2_linear_168_1425)"/>
<path d="M19.5249 38.7036C20.3198 38.7028 21.0818 38.3863 21.6433 37.8237C22.2048 37.2612 22.5199 36.4986 22.5193 35.7037C22.5199 34.9088 22.2048 34.1463 21.6433 33.5837C21.0818 33.0211 20.3198 32.7046 19.5249 32.7038H16.531V35.7037C16.531 37.3603 17.8713 38.7036 19.5249 38.7036ZM19.5249 30.7039H27.5096C29.1626 30.7039 30.5034 29.3606 30.5034 27.7035C30.5041 26.9086 30.189 26.1461 29.6275 25.5835C29.0659 25.0209 28.3039 24.7044 27.5091 24.7036H19.5249C17.8713 24.7036 16.531 26.0469 16.531 27.7035C16.5306 28.0971 16.6077 28.4868 16.758 28.8506C16.9082 29.2143 17.1286 29.5449 17.4066 29.8235C17.6847 30.1021 18.0148 30.3231 18.3783 30.4741C18.7417 30.6251 19.1313 30.703 19.5249 30.7034" fill="url(#paint3_linear_168_1425)"/>
<path d="M0.562257 27.7035C0.561862 28.0971 0.638988 28.4868 0.78923 28.8506C0.939473 29.2143 1.15989 29.5449 1.4379 29.8235C1.7159 30.1021 2.04606 30.3231 2.4095 30.4741C2.77295 30.6251 3.16258 30.703 3.55613 30.7034C4.351 30.7026 5.11301 30.3861 5.67455 29.8235C6.23609 29.261 6.55118 28.4984 6.55051 27.7035V24.7036H3.55613C1.90256 24.7036 0.562257 26.0469 0.562257 27.7035ZM8.54643 27.7035V35.7032C8.54643 37.3603 9.88673 38.7036 11.5403 38.7036C12.3352 38.7028 13.0972 38.3863 13.6587 37.8237C14.2203 37.2612 14.5353 36.4986 14.5347 35.7037V27.7035C14.5351 27.3099 14.4579 26.9201 14.3077 26.5563C14.1574 26.1925 13.9369 25.8619 13.6589 25.5833C13.3808 25.3048 13.0506 25.0837 12.6871 24.9327C12.3236 24.7818 11.9339 24.7039 11.5403 24.7036C9.88673 24.7036 8.54643 26.0469 8.54643 27.7035Z" fill="url(#paint4_linear_168_1425)"/>
</g>
<defs>
<linearGradient id="paint0_linear_168_1425" x1="38.4868" y1="21.9267" x2="121.275" y2="21.9267" gradientUnits="userSpaceOnUse">
<stop stop-color="white" stop-opacity="0.96"/>
<stop offset="1" stop-color="white" stop-opacity="0.84"/>
</linearGradient>
<linearGradient id="paint1_linear_168_1425" x1="0.5625" y1="15.7036" x2="14.5349" y2="15.7036" gradientUnits="userSpaceOnUse">
<stop stop-color="white" stop-opacity="0.96"/>
<stop offset="1" stop-color="white" stop-opacity="0.84"/>
</linearGradient>
<linearGradient id="paint2_linear_168_1425" x1="16.5309" y1="15.7039" x2="30.5033" y2="15.7039" gradientUnits="userSpaceOnUse">
<stop stop-color="white" stop-opacity="0.96"/>
<stop offset="1" stop-color="white" stop-opacity="0.84"/>
</linearGradient>
<linearGradient id="paint3_linear_168_1425" x1="16.531" y1="31.7036" x2="30.5034" y2="31.7036" gradientUnits="userSpaceOnUse">
<stop stop-color="white" stop-opacity="0.96"/>
<stop offset="1" stop-color="white" stop-opacity="0.84"/>
</linearGradient>
<linearGradient id="paint4_linear_168_1425" x1="0.562256" y1="31.7036" x2="14.5347" y2="31.7036" gradientUnits="userSpaceOnUse">
<stop stop-color="white" stop-opacity="0.96"/>
<stop offset="1" stop-color="white" stop-opacity="0.84"/>
</linearGradient>
<clipPath id="clip0_168_1425">
<rect width="121" height="48" fill="white" transform="translate(0.562256)"/>
</clipPath>
</defs>
</svg>
