<svg width="132" height="34" viewBox="0 0 132 34" fill="none" xmlns="http://www.w3.org/2000/svg">
<path d="M27.4985 0.518188H5.55156C2.50908 0.518188 0.0432739 2.98399 0.0432739 6.02647V27.9734C0.0432739 31.0159 2.50908 33.4817 5.55156 33.4817H27.4985C30.541 33.4817 33.0068 31.0159 33.0068 27.9734V6.02647C33.0068 2.98399 30.541 0.518188 27.4985 0.518188ZM27.0147 25.7496C27.0147 26.7107 26.2358 27.4896 25.2747 27.4896H7.77542C6.81429 27.4896 6.03544 26.7107 6.03544 25.7496V8.25034C6.03544 7.2892 6.81429 6.51035 7.77542 6.51035H25.2747C26.2358 6.51035 27.0147 7.2892 27.0147 8.25034V25.7496ZM13.0285 21.4742C12.475 21.4742 12.0309 21.0268 12.0309 20.4733V13.4869C12.0309 12.9334 12.475 12.4826 13.0285 12.4826H20.0249C20.5751 12.4826 21.0225 12.9301 21.0225 13.4869V20.47C21.0225 21.0235 20.5751 21.4709 20.0249 21.4709H13.0285V21.4742ZM41.7465 20.9969H45.3458C45.5247 23.0352 46.9068 24.6261 49.6941 24.6261C52.1831 24.6261 53.7143 23.3965 53.7143 21.5372C53.7143 19.7972 52.5145 19.0183 50.3536 18.5079L47.563 17.9081C44.5338 17.2485 42.2536 15.2997 42.2536 12.1181C42.2536 8.60828 45.3723 6.20876 49.4223 6.20876C53.7109 6.20876 56.4717 8.45913 56.7103 11.7866H53.2304C52.8161 10.2289 51.5235 9.30095 49.4256 9.30095C47.2051 9.30095 45.6772 10.5007 45.6772 12.0319C45.6772 13.5631 46.9963 14.4911 49.2765 15.0015L52.0373 15.6013C55.0665 16.2609 57.1346 18.0903 57.1346 21.2985C57.1346 25.3784 54.0755 27.8077 49.6974 27.8077C44.7757 27.8044 42.0481 25.1364 41.7465 20.9969ZM70.0104 33.4817V27.5128L70.2457 24.8945H70.0104C69.1852 26.777 67.4518 27.8077 65.0987 27.8077C61.3039 27.8077 58.4802 24.7188 58.4802 19.9828C58.4802 15.2467 61.3039 12.1578 65.0987 12.1578C67.422 12.1578 69.0692 13.2449 70.0104 14.9518H70.2457V12.4495H73.3645V33.4817H70.0104ZM70.1264 19.9795C70.1264 16.9502 68.2738 15.1837 66.0068 15.1837C63.7399 15.1837 61.8872 16.9502 61.8872 19.9795C61.8872 23.0087 63.7399 24.7752 66.0068 24.7752C68.2738 24.7752 70.1264 23.012 70.1264 19.9795ZM75.8535 21.5405V12.4495H79.2075V21.2455C79.2075 23.6285 80.3542 24.7752 82.2665 24.7752C84.6197 24.7752 86.1508 23.0982 86.1508 20.4799V12.4495H89.5049V27.5095H86.3862V24.3907H86.1508C85.4151 26.3925 83.7977 27.8044 81.2988 27.8044C77.7061 27.8044 75.8535 25.511 75.8535 21.5405ZM91.5464 23.3037C91.5464 20.4799 93.5184 18.8327 97.0183 18.6273L101.164 18.3621V17.1856C101.164 15.7737 100.134 14.9219 98.3108 14.9219C96.6338 14.9219 95.6329 15.7737 95.3678 16.9801H92.0137C92.3684 13.921 94.8971 12.1545 98.3075 12.1545C102.162 12.1545 104.515 13.8017 104.515 16.9801V27.5095H101.396V24.7155H101.161C100.455 26.5682 98.9836 27.8044 96.1599 27.8044C93.4588 27.8044 91.5464 25.9816 91.5464 23.3037ZM101.168 21.451V20.6556L97.7839 20.8909C95.961 21.0069 95.1358 21.6863 95.1358 23.0385C95.1358 24.1853 96.077 25.0105 97.3994 25.0105C99.7857 25.0105 101.168 23.4826 101.168 21.451ZM107.017 27.5128V12.4495H110.136V15.3329H110.371C110.812 13.3609 112.314 12.4495 114.547 12.4495H116.079V15.4787H114.166C111.989 15.4787 110.371 16.8906 110.371 19.5685V27.5095H107.017V27.5128ZM131.424 20.5992H119.979C120.155 23.3633 122.097 24.9243 124.245 24.9243C126.068 24.9243 127.214 24.1886 127.864 22.9524H131.188C130.277 26.0114 127.599 27.8044 124.215 27.8044C119.774 27.8044 116.655 24.4802 116.655 19.9795C116.655 15.4787 119.86 12.1545 124.245 12.1545C128.656 12.1545 131.54 15.1837 131.54 18.9487C131.543 19.6878 131.483 20.069 131.424 20.5992ZM128.219 18.2759C128.103 16.188 126.366 14.7761 124.248 14.7761C122.246 14.7761 120.573 16.0421 120.158 18.2759H128.219Z" fill="url(#paint0_linear_168_1413)"/>
<defs>
<linearGradient id="paint0_linear_168_1413" x1="0.0432739" y1="17" x2="131.54" y2="17" gradientUnits="userSpaceOnUse">
<stop stop-color="white" stop-opacity="0.96"/>
<stop offset="1" stop-color="white" stop-opacity="0.84"/>
</linearGradient>
</defs>
</svg>
