<svg width="99" height="22" viewBox="0 0 99 22" fill="none" xmlns="http://www.w3.org/2000/svg">
<path fill-rule="evenodd" clip-rule="evenodd" d="M80.2469 6.59723C80.6211 7.24286 80.7436 7.97743 80.784 8.80324L80.8371 9.90393V17.6007L80.8914 18.7025C81 20.502 82.327 21.8325 84.1404 21.9457L85.2364 22V9.90393L85.2907 8.80324C85.3358 7.98667 85.457 7.23824 85.837 6.58799C86.2242 5.92103 86.7801 5.36767 87.4488 4.98348C88.1175 4.59928 88.8755 4.39777 89.6467 4.39918C90.4179 4.40058 91.1751 4.60485 91.8424 4.99148C92.5097 5.37811 93.0636 5.93348 93.4483 6.60185C93.8225 7.24748 93.9392 7.99591 93.9842 8.80324L94.0385 9.90046V17.6007L94.0928 18.7025C94.206 20.5112 95.5227 21.8418 97.3418 21.9457L98.4378 22V8.80324C98.4378 6.46969 97.5111 4.23166 95.8613 2.58127C94.2116 0.930875 91.9739 0.00323181 89.6404 0.00231305C88.3914 0.000995875 87.1565 0.266231 86.0182 0.780298C84.88 1.29437 83.8645 2.04543 83.0397 2.98331C82.2145 2.0458 81.199 1.29492 80.0608 0.780697C78.9226 0.266477 77.6879 0.000728203 76.439 0.00115785C74.6118 0.00115785 72.9163 0.555547 71.5118 1.51302C70.6549 0.556701 68.7376 0.00115785 67.6369 0.00115785V22L68.7376 21.9457C70.5786 21.8244 71.9092 20.5297 71.9808 18.7025L72.0397 17.6007V9.90393L72.0939 8.80324C72.1402 7.97281 72.2556 7.24286 72.631 6.59261C73.0185 5.92606 73.5741 5.37284 74.2423 4.98817C74.9105 4.60351 75.668 4.40086 76.439 4.40046C77.2106 4.40063 77.9686 4.60368 78.6369 4.98925C79.3053 5.37482 79.8605 5.92935 80.2469 6.59723ZM4.93898 21.9469L6.03967 22H22.5385L22.4842 20.9028C22.3352 19.0941 21.0544 17.7728 19.2399 17.655L18.1392 17.6007H8.24106L21.4378 4.39931L21.3835 3.30324C21.2981 1.47606 19.9629 0.155925 18.1392 0.0554414L17.0385 0.00577766L0.539673 0.00115785L0.593957 1.10185C0.738329 2.89322 2.03768 4.24223 3.83713 4.34618L4.93898 4.40046H14.8371L1.64037 17.6018L1.69465 18.7025C1.80322 20.5159 3.11181 21.8291 4.93898 21.9457V21.9469ZM63.3184 3.22123C64.34 4.2426 65.1504 5.45521 65.7033 6.7898C66.2562 8.1244 66.5408 9.55484 66.5408 10.9994C66.5408 12.444 66.2562 13.8744 65.7033 15.209C65.1504 16.5436 64.34 17.7562 63.3184 18.7776C61.2545 20.8399 58.4562 21.9983 55.5385 21.9983C52.6208 21.9983 49.8225 20.8399 47.7586 18.7776C43.4632 14.4823 43.4632 7.51659 47.7586 3.22123C48.7792 2.20021 49.991 1.39022 51.3247 0.837517C52.6584 0.284816 54.0879 0.000228005 55.5316 2.65159e-06C56.9776 -0.00100129 58.4097 0.283085 59.7458 0.836013C61.0819 1.38894 62.296 2.19986 63.3184 3.22239V3.22123ZM60.2058 6.33621C61.443 7.57436 62.138 9.25311 62.138 11.0035C62.138 12.7538 61.443 14.4326 60.2058 15.6707C58.9676 16.908 57.2889 17.6029 55.5385 17.6029C53.7882 17.6029 52.1094 16.908 50.8713 15.6707C49.634 14.4326 48.939 12.7538 48.939 11.0035C48.939 9.25311 49.634 7.57436 50.8713 6.33621C52.1094 5.09898 53.7882 4.404 55.5385 4.404C57.2889 4.404 58.9676 5.09898 60.2058 6.33621ZM32.4459 2.65159e-06C33.8897 0.000379687 35.3192 0.28515 36.6529 0.83805C37.9866 1.39095 39.1983 2.20115 40.2189 3.22239C44.5154 7.51659 44.5154 14.4834 40.2189 18.7776C38.155 20.8399 35.3567 21.9983 32.439 21.9983C29.5213 21.9983 26.723 20.8399 24.6591 18.7776C20.3637 14.4823 20.3637 7.51659 24.6591 3.22123C25.6797 2.20021 26.8915 1.39022 28.2252 0.837517C29.5589 0.284816 30.9884 0.000228005 32.432 2.65159e-06H32.4459ZM37.1062 6.3339C38.3438 7.5721 39.039 9.25109 39.039 11.0017C39.039 12.7524 38.3438 14.4314 37.1062 15.6696C35.8681 16.9068 34.1893 17.6018 32.439 17.6018C30.6886 17.6018 29.0099 16.9068 27.7717 15.6696C26.5345 14.4314 25.8395 12.7527 25.8395 11.0023C25.8395 9.25195 26.5345 7.57321 27.7717 6.33505C29.0099 5.09783 30.6886 4.40284 32.439 4.40284C34.1893 4.40284 35.8681 5.09783 37.1062 6.33505V6.3339Z" fill="url(#paint0_linear_168_1414)"/>
<defs>
<linearGradient id="paint0_linear_168_1414" x1="0.539673" y1="11" x2="98.4378" y2="11" gradientUnits="userSpaceOnUse">
<stop stop-color="white" stop-opacity="0.96"/>
<stop offset="1" stop-color="white" stop-opacity="0.84"/>
</linearGradient>
</defs>
</svg>
